<svg width="24" height="28" viewBox="0 0 24 28" fill="none" xmlns="http://www.w3.org/2000/svg">
<path d="M19.4611 14.7877C19.4745 13.7273 19.756 12.6875 20.2794 11.7651C20.8028 10.8428 21.5511 10.0678 22.4546 9.51245C21.8803 8.69367 21.1231 8.01996 20.2431 7.54474C19.3632 7.06952 18.3846 6.80585 17.3849 6.77466C15.2516 6.55113 13.1826 8.05146 12.0971 8.05146C10.9893 8.05146 9.31552 6.7997 7.51387 6.83457C6.34832 6.87225 5.21239 7.21119 4.21676 7.81838C3.22114 8.42556 2.39976 9.28029 1.83265 10.2993C-0.624385 14.5526 1.20677 20.8034 3.56187 24.2412C4.73943 25.9249 6.11547 27.8052 7.91533 27.7381C9.67764 27.6648 10.3348 26.6142 12.4619 26.6142C14.5694 26.6142 15.1863 27.7381 17.0219 27.6952C18.9121 27.6648 20.1039 26.0044 21.2395 24.3047C22.0853 23.1053 22.7362 21.7796 23.1681 20.3769C22.0698 19.912 21.1326 19.1342 20.4733 18.1403C19.8141 17.1464 19.4621 15.9804 19.4611 14.7877Z" fill="white"/>
<path d="M15.9889 4.51303C17.0206 3.27592 17.5293 1.6853 17.4069 0.0791016C15.832 0.244558 14.3772 0.997334 13.3324 2.18743C12.821 2.76845 12.4291 3.44458 12.1792 4.17716C11.9293 4.90974 11.8262 5.6844 11.8759 6.45684C12.6639 6.46522 13.4435 6.29462 14.1559 5.95791C14.8684 5.6212 15.4951 5.12716 15.9889 4.51303Z" fill="white"/>
</svg>
